<mxfile host="app.diagrams.net" modified="2023-07-15T17:05:39.121Z" agent="Mozilla/5.0 (X11; Linux x86_64; rv:109.0) Gecko/20100101 Firefox/115.0" etag="7FDv4osJ4-X_E1BZdEXg" version="21.6.2" type="device">
  <diagram name="Page-1" id="2YBvvXClWsGukQMizWep">
    <mxGraphModel dx="978" dy="483" grid="1" gridSize="10" guides="1" tooltips="1" connect="1" arrows="1" fold="1" page="1" pageScale="1" pageWidth="850" pageHeight="1100" math="0" shadow="0">
      <root>
        <mxCell id="0" />
        <mxCell id="1" parent="0" />
        <mxCell id="KojrpJjP8F1jOrN7t3VQ-14" value="Agent" style="shape=umlLifeline;perimeter=lifelinePerimeter;whiteSpace=wrap;html=1;container=0;dropTarget=0;collapsible=0;recursiveResize=0;outlineConnect=0;portConstraint=eastwest;newEdgeStyle={&quot;edgeStyle&quot;:&quot;elbowEdgeStyle&quot;,&quot;elbow&quot;:&quot;vertical&quot;,&quot;curved&quot;:0,&quot;rounded&quot;:0};fontFamily=Linux Libertine;" parent="1" vertex="1">
          <mxGeometry x="50" y="50" width="100" height="440" as="geometry" />
        </mxCell>
        <mxCell id="KojrpJjP8F1jOrN7t3VQ-15" value="" style="html=1;points=[];perimeter=orthogonalPerimeter;outlineConnect=0;targetShapes=umlLifeline;portConstraint=eastwest;newEdgeStyle={&quot;edgeStyle&quot;:&quot;elbowEdgeStyle&quot;,&quot;elbow&quot;:&quot;vertical&quot;,&quot;curved&quot;:0,&quot;rounded&quot;:0};fontFamily=Linux Libertine;" parent="KojrpJjP8F1jOrN7t3VQ-14" vertex="1">
          <mxGeometry x="45" y="70" width="10" height="350" as="geometry" />
        </mxCell>
        <mxCell id="KojrpJjP8F1jOrN7t3VQ-16" value="tick()" style="html=1;verticalAlign=bottom;startArrow=oval;endArrow=block;startSize=8;edgeStyle=elbowEdgeStyle;elbow=vertical;curved=0;rounded=0;fontFamily=Latin Modern Mono Light;spacing=3;" parent="KojrpJjP8F1jOrN7t3VQ-14" target="KojrpJjP8F1jOrN7t3VQ-15" edge="1">
          <mxGeometry relative="1" as="geometry">
            <mxPoint x="-15" y="70" as="sourcePoint" />
          </mxGeometry>
        </mxCell>
        <mxCell id="KojrpJjP8F1jOrN7t3VQ-17" value="HybridVisibilityGraph" style="shape=umlLifeline;perimeter=lifelinePerimeter;whiteSpace=wrap;html=1;container=0;dropTarget=0;collapsible=0;recursiveResize=0;outlineConnect=0;portConstraint=eastwest;newEdgeStyle={&quot;edgeStyle&quot;:&quot;elbowEdgeStyle&quot;,&quot;elbow&quot;:&quot;vertical&quot;,&quot;curved&quot;:0,&quot;rounded&quot;:0};fontFamily=Linux Libertine;" parent="1" vertex="1">
          <mxGeometry x="190" y="50" width="140" height="440" as="geometry" />
        </mxCell>
        <mxCell id="KojrpJjP8F1jOrN7t3VQ-18" value="" style="html=1;points=[];perimeter=orthogonalPerimeter;outlineConnect=0;targetShapes=umlLifeline;portConstraint=eastwest;newEdgeStyle={&quot;edgeStyle&quot;:&quot;elbowEdgeStyle&quot;,&quot;elbow&quot;:&quot;vertical&quot;,&quot;curved&quot;:0,&quot;rounded&quot;:0};fontFamily=Linux Libertine;" parent="KojrpJjP8F1jOrN7t3VQ-17" vertex="1">
          <mxGeometry x="65" y="80" width="10" height="320" as="geometry" />
        </mxCell>
        <mxCell id="KojrpJjP8F1jOrN7t3VQ-19" value="&lt;div&gt;OptimalPath(s, t, w)&lt;/div&gt;" style="html=1;verticalAlign=bottom;endArrow=block;edgeStyle=elbowEdgeStyle;elbow=horizontal;curved=0;rounded=0;fontFamily=Latin Modern Mono Light;spacing=3;" parent="1" source="KojrpJjP8F1jOrN7t3VQ-15" target="KojrpJjP8F1jOrN7t3VQ-18" edge="1">
          <mxGeometry relative="1" as="geometry">
            <mxPoint x="205" y="140" as="sourcePoint" />
            <Array as="points">
              <mxPoint x="190" y="130" />
            </Array>
          </mxGeometry>
        </mxCell>
        <mxCell id="KojrpJjP8F1jOrN7t3VQ-20" value="list of coordinates" style="html=1;verticalAlign=bottom;endArrow=open;dashed=1;endSize=8;edgeStyle=elbowEdgeStyle;elbow=vertical;curved=0;rounded=0;fontFamily=Linux Libertine;spacing=3;" parent="1" source="KojrpJjP8F1jOrN7t3VQ-18" target="KojrpJjP8F1jOrN7t3VQ-15" edge="1">
          <mxGeometry relative="1" as="geometry">
            <mxPoint x="205" y="215" as="targetPoint" />
            <Array as="points">
              <mxPoint x="210" y="450" />
              <mxPoint x="230" y="340" />
              <mxPoint x="140" y="330" />
              <mxPoint x="180" y="310" />
              <mxPoint x="210" y="240" />
              <mxPoint x="130" y="280" />
              <mxPoint x="220" y="240" />
              <mxPoint x="250" y="250" />
              <mxPoint x="200" y="290" />
            </Array>
          </mxGeometry>
        </mxCell>
        <mxCell id="KojrpJjP8F1jOrN7t3VQ-21" value="&lt;div&gt;VisibilityGraphGenerator&lt;/div&gt;" style="shape=umlLifeline;perimeter=lifelinePerimeter;whiteSpace=wrap;html=1;container=1;dropTarget=0;collapsible=0;recursiveResize=0;outlineConnect=0;portConstraint=eastwest;newEdgeStyle={&quot;edgeStyle&quot;:&quot;elbowEdgeStyle&quot;,&quot;elbow&quot;:&quot;vertical&quot;,&quot;curved&quot;:0,&quot;rounded&quot;:0};fontFamily=Linux Libertine;" parent="1" vertex="1">
          <mxGeometry x="520" y="50" width="140" height="440" as="geometry" />
        </mxCell>
        <mxCell id="KojrpJjP8F1jOrN7t3VQ-22" value="" style="html=1;points=[];perimeter=orthogonalPerimeter;outlineConnect=0;targetShapes=umlLifeline;portConstraint=eastwest;newEdgeStyle={&quot;edgeStyle&quot;:&quot;elbowEdgeStyle&quot;,&quot;elbow&quot;:&quot;vertical&quot;,&quot;curved&quot;:0,&quot;rounded&quot;:0};fontFamily=Linux Libertine;" parent="KojrpJjP8F1jOrN7t3VQ-21" vertex="1">
          <mxGeometry x="65" y="90" width="10" height="30" as="geometry" />
        </mxCell>
        <mxCell id="KojrpJjP8F1jOrN7t3VQ-25" value="return" style="html=1;verticalAlign=bottom;endArrow=open;dashed=1;endSize=8;edgeStyle=elbowEdgeStyle;elbow=vertical;curved=0;rounded=0;fontFamily=Linux Libertine;spacing=3;" parent="1" edge="1">
          <mxGeometry relative="1" as="geometry">
            <mxPoint x="30" y="470" as="targetPoint" />
            <Array as="points">
              <mxPoint x="80" y="470" />
              <mxPoint x="70" y="440" />
              <mxPoint x="90" y="380" />
              <mxPoint x="80" y="400" />
              <mxPoint x="60" y="380" />
              <mxPoint x="135" y="440" />
              <mxPoint x="165" y="450" />
              <mxPoint x="115" y="490" />
            </Array>
            <mxPoint x="95" y="470" as="sourcePoint" />
          </mxGeometry>
        </mxCell>
        <mxCell id="KojrpJjP8F1jOrN7t3VQ-31" value="SpatialGraph" style="shape=umlLifeline;perimeter=lifelinePerimeter;whiteSpace=wrap;html=1;container=1;dropTarget=0;collapsible=0;recursiveResize=0;outlineConnect=0;portConstraint=eastwest;newEdgeStyle={&quot;edgeStyle&quot;:&quot;elbowEdgeStyle&quot;,&quot;elbow&quot;:&quot;vertical&quot;,&quot;curved&quot;:0,&quot;rounded&quot;:0};fontFamily=Linux Libertine;" parent="1" vertex="1">
          <mxGeometry x="400" y="50" width="100" height="440" as="geometry" />
        </mxCell>
        <mxCell id="KojrpJjP8F1jOrN7t3VQ-32" value="" style="html=1;points=[];perimeter=orthogonalPerimeter;outlineConnect=0;targetShapes=umlLifeline;portConstraint=eastwest;newEdgeStyle={&quot;edgeStyle&quot;:&quot;elbowEdgeStyle&quot;,&quot;elbow&quot;:&quot;vertical&quot;,&quot;curved&quot;:0,&quot;rounded&quot;:0};" parent="KojrpJjP8F1jOrN7t3VQ-31" vertex="1">
          <mxGeometry x="45" y="250" width="10" height="30" as="geometry" />
        </mxCell>
        <mxCell id="KojrpJjP8F1jOrN7t3VQ-38" value="" style="html=1;points=[];perimeter=orthogonalPerimeter;outlineConnect=0;targetShapes=umlLifeline;portConstraint=eastwest;newEdgeStyle={&quot;edgeStyle&quot;:&quot;elbowEdgeStyle&quot;,&quot;elbow&quot;:&quot;vertical&quot;,&quot;curved&quot;:0,&quot;rounded&quot;:0};" parent="KojrpJjP8F1jOrN7t3VQ-31" vertex="1">
          <mxGeometry x="45" y="170" width="10" height="30" as="geometry" />
        </mxCell>
        <mxCell id="CURNNvBHeYC3kacrVr3i-1" value="" style="html=1;points=[];perimeter=orthogonalPerimeter;outlineConnect=0;targetShapes=umlLifeline;portConstraint=eastwest;newEdgeStyle={&quot;edgeStyle&quot;:&quot;elbowEdgeStyle&quot;,&quot;elbow&quot;:&quot;vertical&quot;,&quot;curved&quot;:0,&quot;rounded&quot;:0};" vertex="1" parent="KojrpJjP8F1jOrN7t3VQ-31">
          <mxGeometry x="45" y="330" width="10" height="30" as="geometry" />
        </mxCell>
        <mxCell id="KojrpJjP8F1jOrN7t3VQ-36" value="list of edges" style="html=1;verticalAlign=bottom;endArrow=open;dashed=1;endSize=8;edgeStyle=elbowEdgeStyle;elbow=vertical;curved=0;rounded=0;fontFamily=Linux Libertine;" parent="1" source="KojrpJjP8F1jOrN7t3VQ-32" target="KojrpJjP8F1jOrN7t3VQ-18" edge="1">
          <mxGeometry relative="1" as="geometry">
            <mxPoint x="470" y="240" as="sourcePoint" />
            <mxPoint x="390" y="240" as="targetPoint" />
            <Array as="points">
              <mxPoint x="400" y="330" />
              <mxPoint x="370" y="320" />
              <mxPoint x="580" y="320" />
              <mxPoint x="530" y="290" />
              <mxPoint x="580" y="270" />
              <mxPoint x="390" y="240" />
            </Array>
            <mxPoint as="offset" />
          </mxGeometry>
        </mxCell>
        <mxCell id="KojrpJjP8F1jOrN7t3VQ-37" value="&lt;div&gt;determine shortest path using A*&lt;/div&gt;&lt;div&gt;&lt;font face=&quot;Latin Modern Mono Light&quot;&gt;AStarAlgorithm()&lt;/font&gt;&lt;br&gt;&lt;/div&gt;" style="html=1;verticalAlign=bottom;endArrow=block;edgeStyle=elbowEdgeStyle;elbow=vertical;curved=0;rounded=0;fontFamily=Linux Libertine;" parent="1" source="KojrpJjP8F1jOrN7t3VQ-18" target="KojrpJjP8F1jOrN7t3VQ-32" edge="1">
          <mxGeometry width="80" relative="1" as="geometry">
            <mxPoint x="390" y="240" as="sourcePoint" />
            <mxPoint x="470" y="240" as="targetPoint" />
            <Array as="points">
              <mxPoint x="410" y="300" />
              <mxPoint x="380" y="290" />
              <mxPoint x="570" y="290" />
              <mxPoint x="600" y="270" />
              <mxPoint x="550" y="260" />
              <mxPoint x="550" y="250" />
              <mxPoint x="540" y="230" />
              <mxPoint x="470" y="240" />
            </Array>
          </mxGeometry>
        </mxCell>
        <mxCell id="KojrpJjP8F1jOrN7t3VQ-39" value="&lt;div&gt;add nodes and edges to graph&lt;/div&gt;&lt;div&gt;&lt;font face=&quot;Latin Modern Mono Light&quot;&gt;AddNode()&lt;/font&gt; and &lt;font face=&quot;Latin Modern Mono Light&quot;&gt;AddEdge()&lt;/font&gt;&lt;br&gt;&lt;/div&gt;" style="html=1;verticalAlign=bottom;endArrow=block;edgeStyle=elbowEdgeStyle;elbow=vertical;curved=0;rounded=0;fontFamily=Linux Libertine;" parent="1" source="KojrpJjP8F1jOrN7t3VQ-18" target="KojrpJjP8F1jOrN7t3VQ-38" edge="1">
          <mxGeometry width="80" relative="1" as="geometry">
            <mxPoint x="360" y="210" as="sourcePoint" />
            <mxPoint x="505" y="200" as="targetPoint" />
            <Array as="points">
              <mxPoint x="420" y="220" />
              <mxPoint x="550" y="210" />
            </Array>
          </mxGeometry>
        </mxCell>
        <mxCell id="KojrpJjP8F1jOrN7t3VQ-40" value="" style="html=1;verticalAlign=bottom;endArrow=open;dashed=1;endSize=8;edgeStyle=elbowEdgeStyle;elbow=vertical;curved=0;rounded=0;fontFamily=Linux Libertine;" parent="1" source="KojrpJjP8F1jOrN7t3VQ-38" target="KojrpJjP8F1jOrN7t3VQ-18" edge="1">
          <mxGeometry relative="1" as="geometry">
            <mxPoint x="470" y="240" as="sourcePoint" />
            <mxPoint x="390" y="240" as="targetPoint" />
            <Array as="points">
              <mxPoint x="410" y="250" />
              <mxPoint x="600" y="250" />
              <mxPoint x="540" y="240" />
              <mxPoint x="510" y="230" />
              <mxPoint x="480" y="240" />
            </Array>
          </mxGeometry>
        </mxCell>
        <mxCell id="CURNNvBHeYC3kacrVr3i-2" value="restore original graph" style="html=1;verticalAlign=bottom;endArrow=block;edgeStyle=elbowEdgeStyle;elbow=vertical;curved=0;rounded=0;fontFamily=Linux Libertine;" edge="1" target="CURNNvBHeYC3kacrVr3i-1" parent="1" source="KojrpJjP8F1jOrN7t3VQ-18">
          <mxGeometry relative="1" as="geometry">
            <mxPoint x="320" y="380" as="sourcePoint" />
            <Array as="points">
              <mxPoint x="420" y="380" />
              <mxPoint x="410" y="370" />
            </Array>
          </mxGeometry>
        </mxCell>
        <mxCell id="CURNNvBHeYC3kacrVr3i-3" value="" style="html=1;verticalAlign=bottom;endArrow=open;dashed=1;endSize=8;edgeStyle=elbowEdgeStyle;elbow=vertical;curved=0;rounded=0;" edge="1" source="CURNNvBHeYC3kacrVr3i-1" parent="1" target="KojrpJjP8F1jOrN7t3VQ-18">
          <mxGeometry relative="1" as="geometry">
            <mxPoint x="375" y="435" as="targetPoint" />
            <Array as="points">
              <mxPoint x="400" y="410" />
            </Array>
          </mxGeometry>
        </mxCell>
        <mxCell id="KojrpJjP8F1jOrN7t3VQ-24" value="vertex visibility mapping" style="html=1;verticalAlign=bottom;endArrow=open;dashed=1;endSize=8;edgeStyle=elbowEdgeStyle;elbow=vertical;curved=0;rounded=0;fontFamily=Linux Libertine;spacing=3;" parent="1" source="KojrpJjP8F1jOrN7t3VQ-22" target="KojrpJjP8F1jOrN7t3VQ-18" edge="1">
          <mxGeometry relative="1" as="geometry">
            <mxPoint x="300" y="230" as="targetPoint" />
            <Array as="points">
              <mxPoint x="550" y="170" />
              <mxPoint x="450" y="180" />
              <mxPoint x="440" y="220" />
              <mxPoint x="430" y="190" />
              <mxPoint x="430" y="210" />
              <mxPoint x="430" y="230" />
              <mxPoint x="440" y="270" />
              <mxPoint x="450" y="230" />
            </Array>
            <mxPoint x="480" y="230" as="sourcePoint" />
          </mxGeometry>
        </mxCell>
        <mxCell id="KojrpJjP8F1jOrN7t3VQ-23" value="&lt;div&gt;get visibility neighbors for vertices&lt;/div&gt;&lt;div&gt;&lt;font face=&quot;Latin Modern Mono Light&quot;&gt;GetVisibilityNeighborsForVertex()&lt;/font&gt;&lt;br&gt;&lt;/div&gt;" style="html=1;verticalAlign=bottom;endArrow=block;edgeStyle=elbowEdgeStyle;elbow=vertical;curved=0;rounded=0;fontFamily=Linux Libertine;spacing=3;labelBorderColor=none;labelBackgroundColor=#FFFFFF;" parent="1" source="KojrpJjP8F1jOrN7t3VQ-18" target="KojrpJjP8F1jOrN7t3VQ-22" edge="1">
          <mxGeometry width="80" relative="1" as="geometry">
            <mxPoint x="340" y="230" as="sourcePoint" />
            <mxPoint x="420" y="230" as="targetPoint" />
            <Array as="points">
              <mxPoint x="450" y="140" />
              <mxPoint x="440" y="150" />
              <mxPoint x="310" y="150" />
              <mxPoint x="380" y="160" />
              <mxPoint x="460" y="140" />
              <mxPoint x="430" y="170" />
              <mxPoint x="340" y="260" />
            </Array>
          </mxGeometry>
        </mxCell>
      </root>
    </mxGraphModel>
  </diagram>
</mxfile>
